<svg xmlns="http://www.w3.org/2000/svg" width="50" height="50" viewBox="0 0 64.753 60.706"><g transform="translate(0 -16)"><g transform="translate(57.166 48.884)"><path d="M453.273,276.01a1.263,1.263,0,1,0,1.263,1.263A1.261,1.261,0,0,0,453.273,276.01Z" transform="translate(-452.01 -276.01)" fill="#646363"/></g><g transform="translate(31.113 43.825)"><g transform="translate(0 0)"><path d="M247.273,236.01a1.263,1.263,0,1,0,1.263,1.263A1.261,1.261,0,0,0,247.273,236.01Z" transform="translate(-246.01 -236.01)" fill="#646363"/></g></g><g transform="translate(15.935 38.765)"><path d="M142.441,196a16.441,16.441,0,1,0,16.441,16.441A16.46,16.46,0,0,0,142.441,196Zm0,30.353a13.912,13.912,0,1,1,13.912-13.912A13.928,13.928,0,0,1,142.441,226.353Z" transform="translate(-126 -196)" fill="#646363"/></g><g transform="translate(36.008 45.089)"><path d="M286.6,246.167a1.265,1.265,0,1,0-1.228,2.211,8.87,8.87,0,0,1,4.57,7.746,1.265,1.265,0,0,0,2.529,0A11.4,11.4,0,0,0,286.6,246.167Z" transform="translate(-284.717 -246.007)" fill="#646363"/></g><g transform="translate(0 16)"><g transform="translate(0 0)"><path d="M60.959,36.235H59.694V32.441a1.265,1.265,0,0,0-1.265-1.265H53.371a1.265,1.265,0,0,0-1.265,1.265v3.794H42.5a21.442,21.442,0,0,0-3.8-1.581V31.176h3.794a3.8,3.8,0,0,0,3.794-3.794V19.794A3.8,3.8,0,0,0,42.494,16H22.259a3.8,3.8,0,0,0-3.794,3.794v7.588a3.8,3.8,0,0,0,3.794,3.794h3.794v3.478a21.451,21.451,0,0,0-3.8,1.581H12.647V32.441a1.265,1.265,0,0,0-1.265-1.265H6.324a1.265,1.265,0,0,0-1.265,1.265v3.794H3.794A3.8,3.8,0,0,0,0,40.029V70.382a3.8,3.8,0,0,0,3.794,3.794H22.256a21.51,21.51,0,0,0,20.24,0H60.959a3.8,3.8,0,0,0,3.794-3.794V40.029A3.8,3.8,0,0,0,60.959,36.235Zm-6.324-2.529h2.529v2.529H54.635ZM22.259,28.647a1.266,1.266,0,0,1-1.265-1.265V19.794a1.266,1.266,0,0,1,1.265-1.265H42.494a1.266,1.266,0,0,1,1.265,1.265v7.588a1.266,1.266,0,0,1-1.265,1.265Zm13.912,2.529v2.866a21.552,21.552,0,0,0-7.588,0V31.176ZM7.588,33.706h2.529v2.529H7.588ZM2.529,40.029a1.277,1.277,0,0,1,1.265-1.277h14.73a21.631,21.631,0,0,0-4.39,5.071H2.529Zm0,6.311H12.78a21.568,21.568,0,0,0,0,17.719H2.529ZM3.794,71.647a1.266,1.266,0,0,1-1.265-1.265V66.588h11.6a21.57,21.57,0,0,0,4.39,5.059Zm28.582,2.529A18.971,18.971,0,1,1,51.347,55.206,18.971,18.971,0,0,1,32.376,74.176Zm29.847-3.794a1.266,1.266,0,0,1-1.265,1.265H46.229a21.57,21.57,0,0,0,4.39-5.059h11.6Zm0-6.324H51.973a21.539,21.539,0,0,0,0-17.706H62.224Zm0-20.235h-11.6a21.565,21.565,0,0,0-4.39-5.059h14.73a1.266,1.266,0,0,1,1.265,1.265Z" transform="translate(0 -16)" fill="#646363"/></g></g><g transform="translate(38.7 21.059)"><g transform="translate(0 0)"><path d="M307.265,56A1.265,1.265,0,0,0,306,57.265v2.529a1.265,1.265,0,1,0,2.529,0V57.265A1.265,1.265,0,0,0,307.265,56Z" transform="translate(-306 -56)" fill="#646363"/></g></g></g></svg>