<svg xmlns="http://www.w3.org/2000/svg" width="103.262" height="80.379" viewBox="0 0 103.262 80.379"><g transform="translate(-599.497 -46.298)"><g transform="translate(599.497 46.298)"><path d="M41.519-42.7a133.5,133.5,0,0,0-14.941,1.033,3.291,3.291,0,0,0-1.828-.715c-.4,0-.4.079-.954,1.113C8.379-38.967.114-35.152.034-34.675c-4.609,2.861-2.464,9.06,2.623,10.093a5.681,5.681,0,0,1-4.371-4.45c.954,1.907,2.782,3.338,3.815,3.338a.65.65,0,0,0,.636-.715c0-.874-.636-.795-.636-2.146,0-2.782,16.451-6.278,18.6-6.437C20.618-34.914,2.9-1.932,4.564,14.2a6.208,6.208,0,0,0,1.113,3.338c-.954-1.272-1.113-3.417-1.033-5.086.159-5.8,3.1-14.7,5.086-20.107C7.823-1.456,6.551,4.425,6.551,9.035c0,3.02,2.3,5.245,3.656,5.245a.7.7,0,0,0,.715-.4C11.558-.74,26.658-34.278,26.658-34.278a1.307,1.307,0,0,0-1.272-1.272,27.963,27.963,0,0,0-3.974.318c5.722-1.113,25.193-3.02,27.577-.4a4.59,4.59,0,0,0,2.782,1.669c.477,0,.795-.318.795-.954,0-6.755-10.093-7.073-16.848-6.835a72.048,72.048,0,0,1,8.265-.477c3.1,0,10.649.238,11.6,3.1C54.553-42.464,45.1-42.7,41.519-42.7ZM41.042-7.019c-.318,0-.556.318-.715.715A28.479,28.479,0,0,1,32.221,4.664c0-8.9,4.609-13.59,4.609-16.212,0-2.066-2.623-4.768-5.643-4.768-1.033,0-1.907.159-3.5.159.238-3.179,1.431-4.371,1.431-6.119a3.2,3.2,0,0,0-2.543-3.1C25.307-25.377,23-21.8,23-18.7a7.646,7.646,0,0,0,2.782,5.722,7.9,7.9,0,0,1-1.907-3.815,8.718,8.718,0,0,0,5.4,5.166C27.373-7.893,25.545-3.284,25.545.929c0,4.292,1.828,7.391,5.643,9.219A9.041,9.041,0,0,1,26.181,1.8,16.1,16.1,0,0,1,27.373-4,15.886,15.886,0,0,0,26.817-.1c0,4.768,4.371,8.265,6.119,8.265,4.133,0,8.5-12.8,8.5-14.544C41.44-6.78,41.2-7.019,41.042-7.019Zm9.537-16.53a.639.639,0,0,0,.715-.477,12.708,12.708,0,0,1,.954-2.782c.477-1.113-2.384-4.689-4.53-4.689-.874,0-1.828,3.179-1.828,3.974C45.89-25.615,48.831-23.549,50.579-23.549Zm2.384,16.53c-.238,0-.556.318-.715.636C51.215-3.84,47.8,1.564,45.1,3.71c-.318-6.755,4.371-22.173,4.371-22.014,0-1.51-2.782-4.053-4.133-4.053-2.146,0-11.285,29.325-1.987,32.743-3.338-1.431-3.735-6.04-3.576-9.7C40.089,5.935,42.95,8,44.539,8,48.672,8,53.36-4.714,53.36-6.383,53.36-6.78,53.122-7.019,52.963-7.019Zm22.57.715c0-.4-.079-.715-.318-.715a.726.726,0,0,0-.4.238c-.477.636-1.192,4.133-5.325,5.96a37.734,37.734,0,0,0,3.576-14.7V-15.6c0-2.066-.079-6.755-4.371-6.755a5,5,0,0,0-3.576,2.066c1.192-2.066,3.179-4.768,5.563-4.45-4.609-.954-9.378,9.7-11.206,13.987,1.748-5.881,2.146-6.437,2.146-8.027,0-.795-1.907-3.417-3.815-3.417S48.195,3.79,48.195,16.426c0,3.894.477,8.345,2.861,11.444-1.987-2.861-2.464-6.676-2.464-10.093a56.76,56.76,0,0,1,.556-7.391c-.159,1.748-.238,3.5-.238,5.166,0,4.53.874,12.4,5.166,12.4a.63.63,0,0,0,.715-.715c-.238-2.146-.636-6.278-.636-8.5A70.5,70.5,0,0,1,55.506,6.094a7.573,7.573,0,0,0,5.086,2.464,2.2,2.2,0,0,0,.715-.079,3.063,3.063,0,0,1-2.066.159,3.117,3.117,0,0,0,1.431.318C62.818,8.955,66,7.286,66,5.22c0-2.464-1.351-1.669-4.53-2.384.795.079,1.589.159,2.3.159C71.321,2.995,75.533-3.125,75.533-6.3Zm-18.756,9.7h0a3,3,0,0,1-.4-.636c0-.079.159-.636.159-.715a3.9,3.9,0,0,0,2.066.795A4.131,4.131,0,0,1,56.778,3.392ZM61.705-.1c-2.225-.4-3.974-.874-3.974-.874a63.279,63.279,0,0,1,10.649-17.8A39.672,39.672,0,0,1,61.705-.1Z" transform="translate(2.504 42.702)" fill="#646363"/><path d="M1433.262,99.4s4.141,15.717,10.572,11.226,11.444-25.446,20.708-15.218,15.149-5.488,15.149-5.488" transform="translate(-1378.359 -32.578)" fill="none" stroke="#707070" stroke-linecap="round" stroke-linejoin="round" stroke-width="3"/></g></g></svg>