<svg width="164" height="25" viewBox="0 0 164 25" fill="none" xmlns="http://www.w3.org/2000/svg">
<path d="M121.91 20.2717V11.9994V4.94621H125.973V10.9835H126.234C126.351 9.37743 126.573 8.10998 126.902 7.18117C127.25 6.25235 127.686 5.59444 128.208 5.20743C128.731 4.80108 129.321 4.5979 129.979 4.5979C130.327 4.5979 130.685 4.64628 131.053 4.74303C131.42 4.83978 131.778 4.98491 132.127 5.17841L131.894 10.403C131.488 10.1514 131.082 9.96762 130.675 9.85151C130.269 9.71606 129.882 9.64833 129.514 9.64833C128.895 9.64833 128.363 9.82249 127.918 10.1708C127.492 10.5191 127.163 11.0319 126.931 11.7091C126.718 12.3864 126.602 13.1991 126.583 14.1473V20.2717H121.91Z" fill="black"/>
<path d="M113.463 20.678C112.031 20.678 110.822 20.4748 109.835 20.0684C108.868 19.6427 108.074 19.0719 107.455 18.3559C106.855 17.64 106.42 16.8176 106.149 15.8888C105.897 14.9599 105.771 13.9731 105.771 12.9282C105.771 11.8252 105.907 10.7706 106.178 9.76438C106.468 8.75817 106.903 7.86805 107.484 7.09404C108.084 6.30068 108.858 5.68147 109.806 5.23641C110.754 4.772 111.877 4.53979 113.173 4.53979C114.489 4.53979 115.611 4.772 116.54 5.23641C117.488 5.68147 118.243 6.31035 118.804 7.12307C119.365 7.91643 119.733 8.85492 119.907 9.93854C120.081 11.0028 120.062 12.1541 119.849 13.3926L108.703 13.5667V11.0125L116.308 10.8674L115.64 12.3477C115.756 11.4575 115.737 10.7126 115.582 10.1127C115.447 9.49348 115.176 9.02907 114.769 8.71947C114.382 8.39051 113.85 8.22603 113.173 8.22603C112.476 8.22603 111.906 8.40986 111.46 8.77752C111.035 9.14517 110.725 9.66763 110.532 10.3449C110.358 11.0028 110.27 11.7865 110.27 12.696C110.27 14.2633 110.532 15.405 111.054 16.121C111.596 16.8369 112.409 17.1949 113.492 17.1949C113.957 17.1949 114.344 17.1369 114.653 17.0208C114.982 16.9047 115.243 16.7402 115.437 16.5273C115.63 16.2951 115.766 16.0242 115.843 15.7146C115.921 15.3857 115.95 15.0277 115.93 14.6407L120.226 14.9019C120.265 15.5405 120.187 16.1984 119.994 16.8756C119.8 17.5529 119.452 18.1818 118.949 18.7623C118.446 19.3234 117.749 19.7879 116.859 20.1555C115.969 20.5038 114.837 20.678 113.463 20.678Z" fill="black"/>
<path d="M102.013 20.6199C100.213 20.6199 98.8682 20.1652 97.9781 19.2557C97.1074 18.3269 96.672 16.8853 96.672 14.9309V8.60338H94.9595L94.9885 5.61375H95.1336C96.314 5.45895 97.1461 5.07194 97.6298 4.45273C98.1329 3.83352 98.4425 2.88536 98.5586 1.60824V1.43408H101.316V4.94617H104.828V8.71948H101.316V14.5246C101.316 15.2599 101.49 15.7823 101.839 16.092C102.206 16.4016 102.651 16.5564 103.174 16.5564C103.445 16.5564 103.725 16.5177 104.015 16.4403C104.325 16.3629 104.606 16.2564 104.857 16.121V20.2136C104.238 20.3877 103.696 20.4942 103.232 20.5329C102.767 20.5909 102.361 20.6199 102.013 20.6199Z" fill="black"/>
<path d="M86.521 14.6119V10.4902H94.7642V14.6119H86.521Z" fill="black"/>
<path d="M69.981 24.5964V10.519V4.94615H74.1026V9.64828H74.3348C74.5283 8.52596 74.8379 7.58747 75.2636 6.83281C75.7087 6.0588 76.2601 5.48796 76.918 5.12031C77.5953 4.7333 78.408 4.53979 79.3562 4.53979C80.5559 4.53979 81.5815 4.8494 82.4329 5.46861C83.2843 6.06847 83.9229 6.96826 84.3486 8.16798C84.7936 9.34835 85.0162 10.8093 85.0162 12.5508C85.0162 14.4085 84.7646 15.9371 84.2615 17.1369C83.7777 18.3366 83.1102 19.2267 82.2587 19.8072C81.4073 20.3877 80.4301 20.678 79.3272 20.678C78.4564 20.678 77.6824 20.4941 77.0051 20.1265C76.3472 19.7588 75.7957 19.1977 75.3507 18.443C74.925 17.6883 74.625 16.7305 74.4509 15.5695H74.1606C74.2574 16.1306 74.3445 16.7208 74.4219 17.34C74.4993 17.9399 74.5573 18.5301 74.596 19.1106C74.6541 19.6911 74.6831 20.2523 74.6831 20.7941V24.5964H69.981ZM77.5566 16.8176C78.1758 16.8176 78.6886 16.6337 79.095 16.2661C79.5013 15.8791 79.7916 15.3663 79.9657 14.7277C80.1592 14.0892 80.256 13.4216 80.256 12.725C80.256 11.951 80.1496 11.2544 79.9367 10.6351C79.7432 9.99659 79.4433 9.49348 79.0369 9.12582C78.6306 8.73882 78.1371 8.54531 77.5566 8.54531C77.1696 8.54531 76.8019 8.63239 76.4536 8.80654C76.1053 8.96135 75.7957 9.2129 75.5248 9.56121C75.2539 9.90951 75.0314 10.3449 74.8572 10.8674C74.7024 11.3705 74.625 11.98 74.625 12.696V12.8991C74.625 13.4796 74.6831 13.9828 74.7992 14.4085C74.9153 14.8148 75.0701 15.1825 75.2636 15.5114C75.4571 15.821 75.6796 16.0726 75.9312 16.2661C76.1827 16.4596 76.444 16.6047 76.7149 16.7015C77.0051 16.7789 77.2857 16.8176 77.5566 16.8176Z" fill="black"/>
<path d="M44.8667 20.2716V11.6801V4.94615H48.8432V11.0996H49.1044C49.2399 9.49348 49.5011 8.21636 49.8881 7.26819C50.2945 6.32003 50.8266 5.63309 51.4845 5.20738C52.1618 4.76232 52.9648 4.53979 53.8936 4.53979C54.8611 4.53979 55.6448 4.772 56.2447 5.23641C56.8446 5.70082 57.2896 6.41678 57.5799 7.38429C57.8701 8.35181 58.0056 9.59023 57.9862 11.0996H58.2475C58.3829 9.51283 58.6635 8.24538 59.0892 7.29722C59.5342 6.3297 60.1051 5.63309 60.8017 5.20738C61.4983 4.76232 62.311 4.53979 63.2398 4.53979C64.0332 4.53979 64.7201 4.68492 65.3006 4.97518C65.9005 5.26543 66.3939 5.71049 66.7809 6.31035C67.1873 6.89086 67.4872 7.62617 67.6807 8.51629C67.8742 9.38705 67.971 10.4223 67.971 11.622V20.2716H63.2689V12.0284C63.2689 11.2737 63.2011 10.6448 63.0657 10.1417C62.9496 9.63861 62.7561 9.27095 62.4852 9.03875C62.2336 8.78719 61.9143 8.66142 61.5273 8.66142C61.0242 8.66142 60.5598 8.88394 60.1341 9.329C59.7084 9.77406 59.3601 10.4513 59.0892 11.3608C58.8376 12.2509 58.7119 13.3829 58.7119 14.7568V20.2716H54.1258V11.9123C54.1258 11.177 54.0581 10.5674 53.9226 10.0837C53.7872 9.59991 53.584 9.24193 53.3131 9.00972C53.0616 8.77752 52.7423 8.66142 52.3553 8.66142C51.8522 8.66142 51.3878 8.86459 50.962 9.27095C50.5557 9.65796 50.2171 10.3062 49.9462 11.2157C49.6946 12.1058 49.5688 13.2861 49.5688 14.7568V20.2716H44.8667Z" fill="black"/>
<path d="M35.4822 20.678C34.0115 20.678 32.7054 20.3877 31.5637 19.8072C30.4221 19.2073 29.5319 18.3172 28.8934 17.1369C28.2548 15.9371 27.9355 14.4375 27.9355 12.6379C27.9355 10.7609 28.2645 9.23225 28.9224 8.05188C29.5997 6.85216 30.5091 5.97172 31.6508 5.41056C32.8118 4.83005 34.118 4.53979 35.5692 4.53979C37.0786 4.53979 38.4041 4.83972 39.5457 5.43959C40.6874 6.02009 41.5679 6.91021 42.1871 8.10993C42.8256 9.2903 43.1449 10.79 43.1449 12.6089C43.1449 14.4859 42.8063 16.0242 42.129 17.2239C41.4711 18.4043 40.5616 19.2751 39.4006 19.8362C38.2396 20.3974 36.9334 20.678 35.4822 20.678ZM35.5983 17.2239C36.2175 17.2239 36.7303 17.0595 37.1366 16.7305C37.543 16.3822 37.8526 15.8791 38.0654 15.2212C38.2783 14.5633 38.3847 13.7796 38.3847 12.8701C38.3847 11.8639 38.2686 11.0222 38.0364 10.3449C37.8042 9.64828 37.4656 9.11615 37.0205 8.74849C36.5948 8.38084 36.0627 8.19701 35.4241 8.19701C34.8436 8.19701 34.3502 8.37116 33.9438 8.71947C33.5375 9.04842 33.2182 9.54185 32.986 10.1998C32.7731 10.8577 32.6667 11.651 32.6667 12.5799C32.6667 14.0505 32.9279 15.1922 33.4504 16.0049C33.9728 16.8176 34.6888 17.2239 35.5983 17.2239Z" fill="black"/>
<path d="M16.9756 20.2717V11.9994V4.94621H21.0392V10.9835H21.3004C21.4165 9.37743 21.639 8.10998 21.968 7.18117C22.3163 6.25235 22.7517 5.59444 23.2741 5.20743C23.7966 4.80108 24.3868 4.5979 25.0447 4.5979C25.393 4.5979 25.751 4.64628 26.1186 4.74303C26.4863 4.83978 26.8443 4.98491 27.1926 5.17841L26.9604 10.403C26.554 10.1514 26.1476 9.96762 25.7413 9.85151C25.3349 9.71606 24.9479 9.64833 24.5803 9.64833C23.9611 9.64833 23.4289 9.82249 22.9839 10.1708C22.5582 10.5191 22.2292 11.0319 21.997 11.7091C21.7841 12.3864 21.668 13.1991 21.6487 14.1473V20.2717H16.9756Z" fill="black"/>
<path d="M3.48306 14.844V11.0998H7.11124C8.29161 11.0998 9.17205 10.8579 9.75256 10.3741C10.3331 9.89036 10.6233 9.097 10.6233 7.99403C10.6233 6.94911 10.3524 6.1751 9.81062 5.67199C9.28816 5.14953 8.47544 4.8883 7.37247 4.8883H3.48306V1.11499H7.6337C8.75602 1.11499 9.79126 1.25044 10.7394 1.52135C11.6876 1.7729 12.51 2.17926 13.2066 2.74042C13.9226 3.30158 14.474 4.00786 14.8611 4.85928C15.2674 5.71069 15.4706 6.73626 15.4706 7.93598C15.4706 9.46466 15.1223 10.7418 14.4257 11.7673C13.7484 12.7929 12.7615 13.5669 11.4651 14.0894C10.1686 14.5925 8.57219 14.844 6.67586 14.844H3.48306ZM0 20.2718V1.11499H4.6731V20.2718H0Z" fill="black"/>
<circle cx="152.365" cy="11.2629" r="11.2629" fill="black"/>
<circle cx="152.366" cy="11.2628" r="6.65533" fill="white"/>
</svg>
